<?xml version="1.0" encoding="utf-8"?>
<!-- Generator: Adobe Illustrator 16.0.0, SVG Export Plug-In . SVG Version: 6.00 Build 0)  -->
<!DOCTYPE svg PUBLIC "-//W3C//DTD SVG 1.1//EN" "http://www.w3.org/Graphics/SVG/1.1/DTD/svg11.dtd">
<svg version="1.1" id="Capa_1" xmlns="http://www.w3.org/2000/svg" xmlns:xlink="http://www.w3.org/1999/xlink" x="0px" y="0px"
	 width="612px" height="477.569px" viewBox="0 157.215 612 477.569" enable-background="new 0 157.215 612 477.569" fill="white"
	 xml:space="preserve">
<g>
	<g>
		<path d="M314.104,159.152c-6.026-3.055-13.258-2.461-18.707,1.535L156.096,262.841H17.93c-9.902,0-17.93,8.028-17.93,17.93
			v230.459c0,9.9,8.028,17.93,17.93,17.93h138.166l139.302,102.152c3.134,2.301,6.858,3.473,10.604,3.473
			c2.766,0,5.543-0.641,8.104-1.938c6.026-3.055,9.825-9.236,9.825-15.992V175.146C323.931,168.389,320.132,162.207,314.104,159.152
			z M288.07,581.471L172.568,496.77c-3.075-2.256-6.789-3.471-10.604-3.471H35.859V298.7h126.105c3.813,0,7.528-1.217,10.604-3.471
			l115.502-84.703V581.471z"/>
	</g>
</g>
<g>
	<g>
		<path d="M533.006,396.002l73.742-73.743c7.002-7,7.002-18.354,0-25.355c-7.001-7.002-18.354-7.002-25.356,0l-73.741,73.742
			l-73.742-73.742c-7.001-7.001-18.354-7.001-25.356,0s-7.002,18.354,0,25.355l73.742,73.743l-73.742,73.743
			c-7.002,7.001-7.002,18.354,0,25.354c3.501,3.503,8.09,5.251,12.679,5.251c4.587,0,9.177-1.751,12.677-5.251l73.743-73.741
			l73.741,73.741c3.501,3.503,8.091,5.251,12.679,5.251c4.587,0,9.177-1.751,12.677-5.251c7.002-7.001,7.002-18.354,0-25.354
			L533.006,396.002z"/>
	</g>
</g>
</svg>
